<?xml version="1.0" standalone="no"?><!DOCTYPE svg PUBLIC "-//W3C//DTD SVG 1.1//EN" "http://www.w3.org/Graphics/SVG/1.1/DTD/svg11.dtd"><svg t="1740881933928" class="icon" viewBox="0 0 1024 1024" version="1.1" xmlns="http://www.w3.org/2000/svg" p-id="968" xmlns:xlink="http://www.w3.org/1999/xlink" width="200" height="200"><path d="M584.096 797.184h-178.048a21.088 21.088 0 0 1-21.28-21.28v-103.488a110.304 110.304 0 1 1 220.608 0v103.488a21.088 21.088 0 0 1-21.28 21.28z m-156.8-42.592h135.424v-82.208a67.712 67.712 0 1 0-135.424 0v82.208z" fill="#666666" p-id="969"></path><path d="M716.992 797.152H272.768a54.176 54.176 0 0 1-54.08-54.08v-228.704l-47.264 0.416a19.648 19.648 0 0 1-20.032-13.632 21.152 21.152 0 0 1 5.536-23.424l327.968-294.4a21.472 21.472 0 0 1 28.544 0l320 286.208a20.96 20.96 0 0 1 5.536 23.424 21.184 21.184 0 0 1-19.584 13.632l-48 0.416v235.52a54.4 54.4 0 0 1-54.4 54.624zM239.968 471.392a21.28 21.28 0 0 1 14.912 5.952 21.888 21.888 0 0 1 6.4 15.328v250.432a11.456 11.456 0 0 0 11.488 11.488h444.224a11.456 11.456 0 0 0 11.488-11.488v-256.832a21.28 21.28 0 0 1 20.864-21.28h14.464l-264.928-236.8-271.744 243.616 12.8-0.416z" fill="#666666" p-id="970"></path></svg>